<?xml version="1.0" encoding="utf-8"?>
<!-- Generator: Adobe Illustrator 15.0.0, SVG Export Plug-In . SVG Version: 6.00 Build 0)  -->
<!DOCTYPE svg PUBLIC "-//W3C//DTD SVG 1.1//EN" "http://www.w3.org/Graphics/SVG/1.1/DTD/svg11.dtd">
<svg version="1.1" id="Layer_1" xmlns="http://www.w3.org/2000/svg" xmlns:xlink="http://www.w3.org/1999/xlink" x="0px" y="0px"
	 width="77px" height="55.5px" viewBox="0 0 77 55.5" enable-background="new 0 0 77 55.5" xml:space="preserve">
<g>
	<path fill="#B3B3B3" d="M73.416,3.181h-1.118H4.247H3.129c-0.43,0-0.779,0.349-0.779,0.779v0.798v2.98v0.798h1.118h69.609h1.118
		V7.737v-2.98V3.959C74.195,3.529,73.846,3.181,73.416,3.181z"/>
	<g>
		<circle fill="#343434" cx="5.339" cy="6.257" r="1.207"/>
		<circle fill="#343434" cx="8.571" cy="6.257" r="1.208"/>
		<circle fill="#343434" cx="11.804" cy="6.257" r="1.207"/>
	</g>
	<rect x="25.864" y="5.011" opacity="0.4" fill="#343434" width="46.112" height="2.493"/>
	<path fill="#343434" d="M75.075,1.422H72.52H4.185H1.63c-0.441,0-0.798,0.357-0.798,0.798v1.437v0.958v1.437v43.907v1.437v0.958
		v1.437c0,0.441,0.357,0.798,0.798,0.798h2.554H72.52h2.555c0.44,0,0.798-0.357,0.798-0.798v-1.437v-0.958v-1.437V6.052V4.615V3.657
		V2.22C75.873,1.779,75.515,1.422,75.075,1.422z M73.716,51.295c0,0.43-0.349,0.779-0.779,0.779H3.768
		c-0.43,0-0.779-0.349-0.779-0.779V4.715c0-0.43,0.349-0.779,0.779-0.779h69.169c0.43,0,0.779,0.349,0.779,0.779V51.295z"/>
</g>
</svg>
